<svg xmlns="http://www.w3.org/2000/svg" width="192" height="192" viewBox="0 0 192 192">
  <defs>
    <linearGradient id="grad" x1="0%" y1="0%" x2="100%" y2="100%">
      <stop offset="0%" style="stop-color:#6366f1"/>
      <stop offset="100%" style="stop-color:#a855f7"/>
    </linearGradient>
  </defs>
  <rect width="192" height="192" rx="40" fill="url(#grad)"/>
  <path d="M64 116a8 8 0 0 1-6.24-13.04l79.2-81.6a4 4 0 0 1 6.88 3.68l-15.36 48.16A8 8 0 0 1 104 80h56a8 8 0 0 1 6.24 13.04l-79.2 81.6a4 4 0 0 1-6.88-3.68l15.36-48.16A8 8 0 0 1 88 112H64z" fill="white"/>
</svg>
