<svg xmlns="http://www.w3.org/2000/svg" width="32" height="32" viewBox="0 0 32 32">
  <defs>
    <linearGradient id="grad" x1="0%" y1="0%" x2="100%" y2="100%">
      <stop offset="0%" style="stop-color:#6366f1"/>
      <stop offset="100%" style="stop-color:#a855f7"/>
    </linearGradient>
  </defs>
  <rect width="32" height="32" rx="6" fill="url(#grad)"/>
  <path d="M10 19a2 2 0 0 1-1.56-3.26l13.2-13.6a1 1 0 0 1 1.72.92l-3.84 12.04A2 2 0 0 1 18 17h9a2 2 0 0 1 1.56 3.26l-13.2 13.6a1 1 0 0 1-1.72-.92l3.84-12.04A2 2 0 0 1 15 19h-5z" fill="white"/>
</svg>
